# xmcd
#
# Track frame offsets: 
#        150
#        22409
#        52770
#        69192
#        87087
#        101573
#        126844
#        145998
#        166447
#        179727
#        206406
#
# Disc length: 2978 seconds
#
# Revision: 0
# Processed by: cddbd v1.5.2PL0 Copyright (c) Steve Scherf et al.
# Submitted via: ExactAudioCopy v0.99pb3
#
DISCID=990ba00b
DTITLE=The Mike Wilgar Band - Swimming With Sharks
DYEAR=2008
DGENRE=Blues
TTITLE0=Party All Night
TTITLE1=Down Today
TTITLE2=Checking on my baby
TTITLE3=Real Bad Woman
TTITLE4=Eyesight to the blind
TTITLE5=The thrill is gone
TTITLE6=Dirty Mama
TTITLE7=Put you in a Fine House
TTITLE8=Messed around
TTITLE9=Swimming with sharks
TTITLE10=Crying Shame
EXTD=
EXTT0=
EXTT1=
EXTT2=
EXTT3=
EXTT4=
EXTT5=
EXTT6=
EXTT7=
EXTT8=
EXTT9=
EXTT10=
PLAYORDER=
